<svg width="512" height="512" viewBox="0 0 512 512" style="color:#1C2033" xmlns="http://www.w3.org/2000/svg" class="h-full w-full"><rect width="512" height="512" x="0" y="0" rx="30" fill="transparent" stroke="#000000" stroke-width="0" stroke-opacity="100%" paint-order="stroke"></rect><svg width="256px" height="256px" viewBox="0 0 24 24" fill="#1C2033" x="128" y="128" role="img" style="display:inline-block;vertical-align:middle" xmlns="http://www.w3.org/2000/svg"><g fill="#1C2033"><path fill="currentColor" d="M5 21h14a2 2 0 0 0 2-2V8a1 1 0 0 0-.29-.71l-4-4A1 1 0 0 0 16 3H5a2 2 0 0 0-2 2v14a2 2 0 0 0 2 2zm10-2H9v-5h6zM13 7h-2V5h2zM5 5h2v4h8V5h.59L19 8.41V19h-2v-5a2 2 0 0 0-2-2H9a2 2 0 0 0-2 2v5H5z"/></g></svg></svg>